# xmcd
#
# Track frame offsets: 
#        173
#        11098
#        20400
#        21410
#        30840
#        44098
#        64495
#        72470
#        96403
#        134420
#        146490
#        160870
#
# Disc length: 2200 seconds
#
# Revision: 2
# Processed by: cddbd v1.5.1PL0 Copyright (c) Steve Scherf et al.
# Submitted via: ExactAudioCopy v0.95a5
#
DISCID=ad08960c
DTITLE=Tiny Tim - Tiny Tim's Christmas Album
DYEAR=1996
DGENRE=Christmas/Holiday
TTITLE0=Rudolph The Red Nosed Reindeer
TTITLE1=All I Want For Christmas Is My Two Front Teeth
TTITLE2=That's What I Want For Christmas
TTITLE3=I Saw Mommy Kissing Santa Claus
TTITLE4=White Christmas
TTITLE5=The Christmas Song (Chestnuts Roasting By An Open Fire)
TTITLE6=O Holy Night
TTITLE7=Silent Night
TTITLE8=O Come All Ye Faithful Medley
TTITLE9=Rainbow On The River
TTITLE10=Mission Bell
TTITLE11=What A Friend We Have In Jesus
EXTD=
EXTT0=
EXTT1=
EXTT2=
EXTT3=
EXTT4=
EXTT5=
EXTT6=
EXTT7=
EXTT8=O Come All Ye Faithful, Hark the Herald Angels Sing, O Little To
EXTT8=wn of Bethlehem, Amazing Grace, Throw Out The Lifeline.
EXTT9=
EXTT10=
EXTT11=
PLAYORDER=
